<?xml version="1.0" standalone="no"?>
<!DOCTYPE svg PUBLIC "-//W3C//DTD SVG 20010904//EN"
 "http://www.w3.org/TR/2001/REC-SVG-20010904/DTD/svg10.dtd">
<svg version="1.0" xmlns="http://www.w3.org/2000/svg"
 width="394.000000pt" height="394.000000pt" viewBox="0 0 394.000000 394.000000"
 preserveAspectRatio="xMidYMid meet">
<metadata>
Created by potrace 1.14, written by Peter Selinger 2001-2017
</metadata>
<g transform="translate(0.000000,394.000000) scale(0.100000,-0.100000)"
fill="#000000" stroke="none">
<path d="M354 3821 c4 -6 14 -11 22 -11 8 0 14 -4 14 -8 0 -4 12 -15 28 -25
15 -9 42 -30 61 -47 18 -16 38 -30 42 -30 5 0 9 -7 9 -15 0 -7 7 -18 15 -22
21 -12 125 -145 125 -160 0 -7 4 -13 8 -13 11 0 109 -196 128 -255 2 -5 15
-42 29 -82 23 -65 82 -280 90 -328 6 -32 24 -128 29 -155 3 -13 8 -40 11 -60
3 -19 12 -78 20 -130 8 -52 17 -115 20 -140 3 -25 7 -61 10 -80 3 -19 7 -55
10 -80 2 -25 6 -61 9 -80 6 -43 14 -116 21 -175 12 -108 16 -144 26 -215 18
-122 57 -270 71 -270 5 0 7 -4 4 -9 -7 -11 54 -138 101 -211 39 -60 120 -158
168 -203 36 -35 169 -135 210 -160 85 -51 295 -138 364 -152 9 -2 54 -11 101
-21 155 -34 472 -21 540 21 5 3 9 -3 9 -12 1 -10 3 -131 5 -270 4 -248 10
-318 26 -308 4 3 13 -1 19 -9 18 -22 75 -13 104 16 l26 26 -5 169 c-5 175 -10
260 -18 328 -13 107 -15 145 -7 145 33 0 254 266 254 307 0 7 3 13 7 13 15 0
72 151 95 250 53 237 33 522 -55 787 -48 143 -123 313 -134 306 -6 -3 -8 -3
-4 2 14 15 -123 260 -137 247 -5 -4 -5 -2 -2 4 4 7 -2 23 -13 37 -11 14 -20
30 -20 36 0 5 -8 16 -18 23 -11 7 -25 24 -32 37 -7 14 -22 34 -32 45 -11 12
-27 31 -35 43 -8 13 -20 20 -26 16 -5 -3 -7 -2 -4 4 7 11 -178 195 -187 186
-3 -4 -6 -2 -6 4 0 6 -26 30 -57 54 -32 23 -59 46 -61 51 -2 4 -8 8 -14 8 -5
0 -16 7 -25 15 -8 8 -19 13 -24 10 -5 -4 -9 -2 -9 3 0 9 -122 92 -135 92 -4 0
-20 9 -36 21 -16 11 -29 17 -29 12 0 -4 -4 -3 -8 3 -9 15 -67 44 -87 44 -8 0
-15 4 -15 8 0 7 -35 25 -130 64 -14 6 -37 17 -52 25 -16 8 -28 11 -28 7 0 -3
-6 -2 -12 4 -17 13 -285 102 -315 104 -13 2 -23 5 -23 9 0 3 -6 6 -12 7 -7 0
-22 3 -33 6 -85 23 -177 45 -183 45 -4 -1 -9 0 -12 1 -7 2 -30 7 -70 14 -19 4
-42 9 -51 12 -9 2 -32 7 -50 9 -19 3 -45 7 -59 10 -13 2 -42 7 -65 10 -22 3
-51 8 -65 10 -56 10 -193 23 -339 31 -76 5 -102 3 -97 -5z"/>
<path d="M3095 1013 c-9 -27 -21 -58 -26 -70 -12 -33 -4 -28 19 10 18 29 38
107 28 107 -2 0 -12 -21 -21 -47z"/>
</g>
</svg>
