<svg width="32" height="32" viewBox="0 0 32 32" fill="none" xmlns="http://www.w3.org/2000/svg">
<path d="M17.36 2.66699C19.76 2.66699 20.267 2.69399 21.493 2.74699C22.906 2.81399 23.88 3.03999 24.72 3.37399C25.6 3.70699 26.347 4.17399 27.08 4.90699C27.827 5.63999 28.28 6.38699 28.627 7.26699C28.96 8.10699 29.174 9.07999 29.24 10.507C29.307 11.774 29.32 12.267 29.32 14.934V17.067C29.32 19.734 29.307 20.227 29.24 21.494C29.217 22.659 28.994 23.764 28.604 24.788L28.626 24.721C28.279 25.601 27.826 26.348 27.093 27.081C26.346 27.828 25.6 28.281 24.72 28.628C23.88 28.961 22.907 29.175 21.493 29.241C20.226 29.308 19.72 29.321 17.053 29.321H14.933C12.266 29.321 11.773 29.308 10.493 29.241C9.32802 29.218 8.22302 28.995 7.19902 28.605L7.26602 28.627C6.34302 28.274 5.55602 27.753 4.90702 27.094L4.90602 27.093C4.24002 26.441 3.71402 25.649 3.37402 24.764L3.35902 24.719C2.99202 23.763 2.76902 22.657 2.74602 21.502V21.492C2.69302 20.45 2.66302 19.229 2.66302 18.002C2.66302 17.776 2.66402 17.55 2.66602 17.325V17.359V14.626C2.66602 12.226 2.69302 11.719 2.74602 10.493C2.81302 9.07999 3.03902 8.10599 3.35902 7.26599C3.70602 6.38599 4.15902 5.63899 4.90602 4.90599C5.55102 4.23899 6.34002 3.71599 7.22302 3.38699L7.26602 3.37299C8.22102 3.00199 9.32602 2.77399 10.481 2.74699H10.493C11.72 2.69399 12.226 2.66699 14.626 2.66699H17.36ZM17.387 5.06699H14.6C12.293 5.06699 11.8 5.09399 10.6 5.14699C9.30703 5.19999 8.60003 5.41399 8.13303 5.59999C7.50603 5.83999 7.06602 6.13299 6.60002 6.59999C6.13402 7.06699 5.84002 7.50699 5.60002 8.13299C5.42702 8.59999 5.20002 9.30599 5.14702 10.613C5.09402 11.813 5.06702 12.293 5.06702 14.613V17.386C5.06702 19.706 5.09402 20.186 5.14702 21.386C5.20002 22.679 5.41402 23.386 5.60002 23.853C5.84002 24.48 6.13302 24.92 6.60002 25.386C7.06702 25.852 7.50703 26.146 8.13303 26.386C8.60003 26.573 9.30602 26.786 10.613 26.839C11.906 26.906 12.373 26.919 15.253 26.919H16.733C19.626 26.919 20.08 26.906 21.386 26.839C22.679 26.786 23.386 26.572 23.853 26.386C24.48 26.146 24.92 25.853 25.386 25.386C25.852 24.919 26.146 24.479 26.386 23.853C26.573 23.386 26.786 22.68 26.839 21.386C26.906 20.079 26.919 19.626 26.919 16.733V15.266C26.919 12.373 26.906 11.906 26.839 10.599C26.786 9.30599 26.572 8.59899 26.386 8.13199C26.16 7.53099 25.819 7.01799 25.387 6.59999L25.386 6.59899C24.966 6.16599 24.454 5.82499 23.881 5.60799L23.853 5.59899C23.121 5.32299 22.275 5.15799 21.391 5.14599H21.386C20.358 5.09399 19.155 5.06399 17.944 5.06399C17.748 5.06399 17.552 5.06499 17.356 5.06599H17.386L17.387 5.06699ZM16 9.14699C19.781 9.14699 22.847 12.212 22.847 15.994C22.847 19.776 19.782 22.841 16 22.841C12.219 22.841 9.15302 19.776 9.15302 15.994C9.15302 12.212 12.218 9.14699 16 9.14699V9.14699ZM16 11.547C13.544 11.547 11.553 13.538 11.553 15.994C11.553 18.45 13.544 20.441 16 20.441C18.456 20.441 20.447 18.45 20.447 15.994C20.447 13.538 18.456 11.547 16 11.547ZM23.107 7.27999C23.991 7.27999 24.707 7.99599 24.707 8.87999C24.707 9.76399 23.991 10.48 23.107 10.48C22.223 10.48 21.507 9.76399 21.507 8.87999C21.507 7.99599 22.223 7.27999 23.107 7.27999V7.27999Z" fill="black"/>
</svg>
