<svg width="32" height="32" viewBox="0 0 32 32" fill="none" xmlns="http://www.w3.org/2000/svg">
<path d="M29.333 7.83998C28.333 8.33298 27.333 8.50698 26.16 8.66698C27.333 7.99998 28.16 6.99998 28.493 5.66698C27.488 6.27498 26.317 6.73798 25.07 6.98898L25 7.00098C23.969 5.98698 22.56 5.35498 21.004 5.33398H21C18.16 5.33398 15.667 7.84098 15.667 10.841C15.667 11.334 15.667 11.668 15.84 12.001C11.262 11.823 7.22103 9.66398 4.52903 6.36198L4.50703 6.33398C4.08203 7.05998 3.83103 7.93198 3.83103 8.86298C3.83103 8.97198 3.83403 9.08098 3.84103 9.18898L3.84003 9.17398C3.87403 11.052 4.84903 12.695 6.31303 13.655L6.33403 13.668C5.49403 13.668 4.66703 13.335 3.82703 13.001C3.82703 15.668 5.66703 17.841 8.16003 18.334C7.66703 18.507 7.16003 18.507 6.66703 18.507C6.33403 18.507 6.00003 18.507 5.66703 18.334C6.33403 20.507 8.33403 22.174 10.84 22.174C9.04003 23.629 6.72403 24.509 4.20303 24.509C4.13203 24.509 4.06103 24.508 3.99003 24.507H4.00103H2.66803C5.03303 26.016 7.90403 26.936 10.984 27H11.001C21.001 27 26.508 18.667 26.508 11.493V10.826C27.655 10.036 28.601 9.03898 29.311 7.88198L29.335 7.83998H29.333Z" fill="black"/>
</svg>
